<svg xmlns="http://www.w3.org/2000/svg" width="32" height="32" viewBox="0 0 24 24" fill="none" stroke="#6fcf8a" stroke-width="1.75" stroke-linecap="round" stroke-linejoin="round">
  <g fill="#6fcf8a">
    <path fill-opacity="0.14" d="M12 12C7.4 10.6 5.2 4.8 12 1.6C18.8 4.8 16.6 10.6 12 12Z" transform="rotate(-90 12 12)"/>
    <path fill-opacity="0.14" d="M12 12C7.4 10.6 5.2 4.8 12 1.6C18.8 4.8 16.6 10.6 12 12Z" transform="rotate(-45 12 12)"/>
    <path fill-opacity="0.14" d="M12 12C7.4 10.6 5.2 4.8 12 1.6C18.8 4.8 16.6 10.6 12 12Z" transform="rotate(0 12 12)"/>
    <path fill-opacity="0.14" d="M12 12C7.4 10.6 5.2 4.8 12 1.6C18.8 4.8 16.6 10.6 12 12Z" transform="rotate(45 12 12)"/>
    <path fill-opacity="0.14" d="M12 12C7.4 10.6 5.2 4.8 12 1.6C18.8 4.8 16.6 10.6 12 12Z" transform="rotate(90 12 12)"/>
    <path fill-opacity="0.14" d="M12 12C7.4 10.6 5.2 4.8 12 1.6C18.8 4.8 16.6 10.6 12 12Z" transform="rotate(135 12 12)"/>
    <path fill-opacity="0.14" d="M12 12C7.4 10.6 5.2 4.8 12 1.6C18.8 4.8 16.6 10.6 12 12Z" transform="rotate(180 12 12)"/>
    <path fill-opacity="0.14" d="M12 12C7.4 10.6 5.2 4.8 12 1.6C18.8 4.8 16.6 10.6 12 12Z" transform="rotate(225 12 12)"/>
    <path fill-opacity="0.26" d="M12 12C10.1 11.2 9.4 8.2 12 6.2C14.6 8.2 13.9 11.2 12 12Z" transform="rotate(-67.5 12 12)"/>
    <path fill-opacity="0.26" d="M12 12C10.1 11.2 9.4 8.2 12 6.2C14.6 8.2 13.9 11.2 12 12Z" transform="rotate(-22.5 12 12)"/>
    <path fill-opacity="0.26" d="M12 12C10.1 11.2 9.4 8.2 12 6.2C14.6 8.2 13.9 11.2 12 12Z" transform="rotate(22.5 12 12)"/>
    <path fill-opacity="0.26" d="M12 12C10.1 11.2 9.4 8.2 12 6.2C14.6 8.2 13.9 11.2 12 12Z" transform="rotate(67.5 12 12)"/>
    <path fill-opacity="0.26" d="M12 12C10.1 11.2 9.4 8.2 12 6.2C14.6 8.2 13.9 11.2 12 12Z" transform="rotate(112.5 12 12)"/>
    <path fill-opacity="0.26" d="M12 12C10.1 11.2 9.4 8.2 12 6.2C14.6 8.2 13.9 11.2 12 12Z" transform="rotate(157.5 12 12)"/>
    <path fill-opacity="0.26" d="M12 12C10.1 11.2 9.4 8.2 12 6.2C14.6 8.2 13.9 11.2 12 12Z" transform="rotate(-157.5 12 12)"/>
    <path fill-opacity="0.26" d="M12 12C10.1 11.2 9.4 8.2 12 6.2C14.6 8.2 13.9 11.2 12 12Z" transform="rotate(-112.5 12 12)"/>
    <circle cx="12" cy="12" r="1.1" stroke="none"/>
  </g>
</svg>
